<svg width="147" height="40" viewBox="0 0 147 40" fill="none" xmlns="http://www.w3.org/2000/svg">
<g clip-path="url(#clip0_344_1067)">
<path fill-rule="evenodd" clip-rule="evenodd" d="M19.8051 39.6078C30.6342 39.6078 39.413 30.8291 39.413 20C39.413 9.17088 30.6342 0.392151 19.8051 0.392151C8.976 0.392151 0.197266 9.17088 0.197266 20C0.197266 30.8291 8.976 39.6078 19.8051 39.6078ZM19.8051 39.6078C28.1074 39.6078 34.8378 32.8775 34.8378 24.5752C34.8378 16.2728 28.1074 9.54248 19.8051 9.54248C11.5028 9.54248 4.77243 16.2728 4.77243 24.5752C4.77243 32.8775 11.5028 39.6078 19.8051 39.6078Z" fill="url(#paint0_linear_344_1067)"/>
</g>
<path fill-rule="evenodd" clip-rule="evenodd" d="M18.6323 20.1317C18.5671 20.068 18.4846 20.0249 18.395 20.008C18.3054 19.9911 18.2128 20.0011 18.1289 20.0367C18.045 20.0724 17.9735 20.132 17.9235 20.2082C17.8734 20.2844 17.847 20.3737 17.8477 20.4649L17.9017 28.9529C17.9023 29.0439 17.9297 29.1326 17.9805 29.208C18.0313 29.2835 18.1033 29.3422 18.1873 29.3769C18.2714 29.4115 18.3638 29.4206 18.453 29.403C18.5422 29.3853 18.6242 29.3417 18.6888 29.2776L20.9223 27.0607C21.0064 26.9772 21.1194 26.9293 21.2379 26.9268L24.3842 26.8619C24.4751 26.86 24.5635 26.8314 24.6382 26.7795C24.7129 26.7276 24.7706 26.6548 24.8041 26.5703C24.8376 26.4858 24.8454 26.3932 24.8264 26.3043C24.8075 26.2153 24.7628 26.1339 24.6978 26.0703L18.6323 20.1317Z" fill="#050100"/>
<path d="M67.6516 31.1111H63.7614L62.2241 26.6876H52.8751L51.3378 31.1111H47.4163L55.3849 9.15032H59.7143L67.6516 31.1111ZM57.5496 13.3856L54.0673 23.2993H61.032L57.5496 13.3856Z" fill="#050100"/>
<path d="M72.366 12.4444C71.519 13.2915 70.2013 13.2915 69.3229 12.4444C68.4758 11.566 68.4758 10.2484 69.3229 9.4013C70.17 8.52287 71.5504 8.52287 72.3974 9.4013C73.2445 10.2484 73.2445 11.566 72.366 12.4444ZM72.5543 31.1111H69.166V15.4248H72.5543V31.1111Z" fill="#050100"/>
<path d="M82.4177 26.8131L86.4334 15.4248H90.0413L84.0177 31.6131C82.5119 35.6601 79.9707 37.6052 76.3629 37.3856V34.217C78.4962 34.3425 79.6883 33.3072 80.5354 31.1425L80.6923 30.8288L74.0413 15.4248H77.7432L82.4177 26.8131Z" fill="#050100"/>
<path d="M103.343 17.6523V15.4248H106.731V31.1111H103.343V28.8523C102.057 30.6405 100.237 31.519 97.853 31.519C95.6883 31.519 93.8687 30.7346 92.3315 29.1346C90.7942 27.5346 90.0413 25.5582 90.0413 23.268C90.0413 20.9464 90.7942 19.0013 92.3315 17.4013C93.8687 15.8013 95.6883 15.017 97.853 15.017C100.237 15.017 102.057 15.8954 103.343 17.6523ZM94.8413 26.8758C95.7825 27.817 96.9746 28.2876 98.3864 28.2876C99.7981 28.2876 100.99 27.817 101.931 26.8758C102.873 25.9033 103.343 24.7111 103.343 23.268C103.343 21.8248 102.873 20.6327 101.931 19.6915C100.99 18.719 99.7981 18.2484 98.3864 18.2484C96.9746 18.2484 95.7825 18.719 94.8413 19.6915C93.9001 20.6327 93.4295 21.8248 93.4295 23.268C93.4295 24.7111 93.9001 25.9033 94.8413 26.8758Z" fill="#050100"/>
<path d="M122.477 17.6523V9.15032H125.865V31.1111H122.477V28.8523C121.191 30.6405 119.371 31.519 116.987 31.519C114.822 31.519 113.002 30.7346 111.465 29.1346C109.928 27.5346 109.175 25.5582 109.175 23.268C109.175 20.9464 109.928 19.0013 111.465 17.4013C113.002 15.8013 114.822 15.017 116.987 15.017C119.371 15.017 121.191 15.8954 122.477 17.6523ZM113.975 26.8758C114.916 27.817 116.108 28.2876 117.52 28.2876C118.932 28.2876 120.124 27.817 121.065 26.8758C122.006 25.9033 122.477 24.7111 122.477 23.268C122.477 21.8248 122.006 20.6327 121.065 19.6915C120.124 18.719 118.932 18.2484 117.52 18.2484C116.108 18.2484 114.916 18.719 113.975 19.6915C113.034 20.6327 112.563 21.8248 112.563 23.268C112.563 24.7111 113.034 25.9033 113.975 26.8758Z" fill="#050100"/>
<path d="M141.61 17.6523V15.4248H144.999V31.1111H141.61V28.8523C140.324 30.6405 138.505 31.519 136.12 31.519C133.955 31.519 132.136 30.7346 130.599 29.1346C129.061 27.5346 128.308 25.5582 128.308 23.268C128.308 20.9464 129.061 19.0013 130.599 17.4013C132.136 15.8013 133.955 15.017 136.12 15.017C138.505 15.017 140.324 15.8954 141.61 17.6523ZM133.108 26.8758C134.05 27.817 135.242 28.2876 136.654 28.2876C138.065 28.2876 139.257 27.817 140.199 26.8758C141.14 25.9033 141.61 24.7111 141.61 23.268C141.61 21.8248 141.14 20.6327 140.199 19.6915C139.257 18.719 138.065 18.2484 136.654 18.2484C135.242 18.2484 134.05 18.719 133.108 19.6915C132.167 20.6327 131.697 21.8248 131.697 23.268C131.697 24.7111 132.167 25.9033 133.108 26.8758Z" fill="#050100"/>
<defs>
<linearGradient id="paint0_linear_344_1067" x1="19.8051" y1="0.392151" x2="19.8051" y2="39.6078" gradientUnits="userSpaceOnUse">
<stop stop-color="#FF5833"/>
<stop offset="1" stop-color="#FE7734"/>
</linearGradient>
<clipPath id="clip0_344_1067">
<rect width="39.2157" height="39.2157" fill="white" transform="translate(0.199219 0.392151)"/>
</clipPath>
</defs>
</svg>
